<svg xmlns="http://www.w3.org/2000/svg" viewBox="0 0 200 40">
  <g fill="none" fill-rule="evenodd">
    <path fill="#4D4D4D" d="M27.85 6.59s-.06 5.89 1.23 9.3c1.44 3.78 4.13 6.75 8.32 8.77l.23.1v-9.89h5.94v11.86c2.95.65 5.65.84 7.39.89.42 0 .8.04 1.06.04V6.6H27.85"/>
    <path fill="#4D4D4D" d="M2.46 32.82c2.1 4.18 9.99 2.14 11.91-1.59-2.33-2.57-2.93-5.72-2.61-9.18 1.4 6.79 5.46 10.88 12.05 12.43-.5-3.23-1.17-6.32-1.39-9.45-.3-4.2.48-8.26 2.5-12.02a6.76 6.76 0 0 1 7.73-3.65c.45.1.97.29 1.36.15.75-.25 1.7-.55 2.05-1.13.23-.4-.28-1.41-.7-1.99-.6-.87-1.52-1.52-2.13-2.39-1.85-2.63-4.37-2.97-7.2-2.21A16.87 16.87 0 0 0 18.87 6a27.98 27.98 0 0 0-9.04 19.1c-.07 1.06-.14 2.15-.42 3.17-.8 2.84-2.9 4.4-5.86 4.47-.35.01-.7.05-1.1.08"/>
    <path fill="#4D4D4D" d="M51.95 34.45h.07v-.06l-.07.06"/>
    <path fill="#4D4D4D" d="M26.37 11.93a35.55 35.55 0 0 0-2.05 5.92 22.53 22.53 0 0 0 .56 13.21c1.5 4.27 4.79 6.8 8.66 6.7.85-.01 1.69-.27 2.62-.44-1.06-.88-2.07-1.49-2.78-2.35-.69-.84-1.08-1.94-1.46-3 6.26 3.77 15.03 1.13 16.44.48 2.2-1.01 4.56-2.93 2.55-2.98-6.76-.18-23.22-2.37-24.54-17.54M75.18 19.72v2.8c0 3.37-1.68 5.3-4.93 5.3s-4.94-1.93-4.94-5.3V11.56c0-3.37 1.69-5.3 4.94-5.3 3.25 0 4.93 1.93 4.93 5.3v2.05h-3.13v-2.26c0-1.5-.66-2.07-1.71-2.07-1.06 0-1.72.57-1.72 2.07v11.38c0 1.5.66 2.04 1.72 2.04 1.05 0 1.71-.54 1.71-2.04v-3.01h3.13M82.7 27.57h-3.4V6.51h2.95v13.33l1.2-4.64 2.71-8.7h3.64v21.07h-2.97V12.74l-1.36 5.17-2.77 9.66M93.32 24.6c1.5 0 1.99-.22 2.05-2.17l.54-15.92h9.36v21.06h-3.37V9.52h-2.89l-.36 12.73c-.12 3.85-1.5 5.35-4.81 5.35h-.52v-3"/>
    <path fill="#4D4D4D" d="M109.59 18.7h3.33v-3.33h-3.33z"/>
    <path fill="#4D4D4D" d="M120.98 27.57h-3.31V6.51h10.44v21.06h-3.37V9.52h-3.76v18.05M135.78 20.9h3.19l-1.6-10.66-1.59 10.65zm7.55 6.67H140l-.57-3.82h-4.06l-.57 3.82h-3.04l3.37-21.06h4.84l3.37 21.06zM150.28 9.52v7.13h1.57c1.05 0 1.62-.48 1.62-1.99V11.5c0-1.5-.57-1.98-1.62-1.98h-1.57zm6.5 2.2v2.73c0 3.37-1.62 5.2-4.93 5.2h-1.57v7.92h-3.3V6.51h4.87c3.3 0 4.93 1.83 4.93 5.2zM164.76 19.18l-1.03 1.92v6.47h-3.3V6.51h3.3v9.18l4.34-9.18h3.3l-4.6 9.39 4.6 11.67h-3.4l-3.21-8.4M178.3 15.38h4.54v3.01h-4.54v6.17H184v3.01H175V6.51H184v3h-5.71v5.88M187.2 6.5h10.24v3.02h-3.47v18.05h-3.3V9.52h-3.47V6.5"/>
    <path fill="#4D4D4D" d="M68.9 34.6v3.59h-.41v-2.77h-.02l-1.14 2.74h-.38l-1.14-2.74h-.02v2.77h-.42v-3.6h.52l1.24 3h.02l1.24-3h.52M72.78 35.14l-.57 1.64h1.16l-.58-1.64h-.01zm1.08 3.05l-.36-1.03h-1.43l-.36 1.03h-.47l1.33-3.6H73l1.32 3.6h-.47zM77.12 38.19h-.45v-3.6h2.13v.42h-1.68v3.18M82.01 35.14l-.57 1.64h1.16l-.57-1.64H82zm1.08 3.05l-.36-1.03h-1.42l-.36 1.03h-.47l1.32-3.6h.44l1.32 3.6h-.47zM86.5 36.55v-.4h.48a.8.8 0 0 0 .54-.17c.14-.13.2-.28.2-.47a.54.54 0 0 0-.18-.44.78.78 0 0 0-.52-.16c-.23 0-.4.06-.54.16a.61.61 0 0 0-.23.45h-.44a1 1 0 0 1 .36-.74c.22-.18.5-.27.86-.27.34 0 .61.1.83.27.22.18.32.41.32.7 0 .2-.06.37-.18.52a.86.86 0 0 1-.48.3v.03c.24.03.42.12.56.28.14.16.2.37.2.6 0 .3-.11.55-.36.76-.24.2-.54.3-.9.3-.37 0-.68-.1-.92-.28a.96.96 0 0 1-.39-.74h.44c.02.19.1.34.26.45.16.12.36.17.61.17.24 0 .44-.06.59-.18a.6.6 0 0 0 .22-.48c0-.2-.07-.37-.22-.48a.95.95 0 0 0-.6-.18h-.51M93.15 38.19v-2.86h-.04l-1.94 2.86h-.44v-3.6h.44v2.87h.04l1.94-2.86h.44v3.59h-.44M99.08 38.19h-.45v-1.64h-1.97v1.64h-.45v-3.6h.45v1.56h1.97V34.6h.45v3.59M107.66 38.19h-.45v-1.64h-1.97v1.64h-.44v-3.6h.44v1.56h1.97V34.6h.45v3.59M111.53 35.14l-.57 1.64h1.16l-.57-1.64h-.02zm1.08 3.05l-.36-1.03h-1.42l-.36 1.03H110l1.32-3.6h.44l1.32 3.6h-.47zM118.23 38.19h-.44V35h-1.92v3.18h-.45v-3.6h2.81v3.6M123.24 35.34c-.21-.26-.5-.39-.87-.39s-.66.13-.87.4a1.6 1.6 0 0 0-.32 1.04c0 .44.1.8.32 1.05.21.26.5.4.87.4s.66-.14.87-.4c.21-.26.32-.6.32-1.05 0-.44-.1-.79-.32-1.05zm-2.08-.3c.3-.33.7-.5 1.21-.5.5 0 .91.17 1.2.5.3.33.45.78.45 1.35 0 .57-.15 1.02-.44 1.36-.3.33-.7.5-1.21.5-.5 0-.91-.17-1.2-.5-.3-.34-.45-.79-.45-1.36 0-.57.14-1.02.44-1.35zM129.22 38.19h-.45V35h-1.3l-.12 1.84c-.03.48-.12.83-.27 1.04a.73.73 0 0 1-.65.33c-.06 0-.12-.01-.17-.03v-.4l.13.02a.4.4 0 0 0 .38-.23c.08-.15.13-.4.15-.74l.13-2.23h2.17v3.59M132.29 37.78h.76c.26 0 .46-.06.6-.19.14-.12.21-.3.21-.53a.69.69 0 0 0-.21-.54.86.86 0 0 0-.6-.19h-.76v1.45zm-.45.4V34.6h.45v1.33h.88c.33 0 .61.1.83.32.21.2.32.48.32.81 0 .33-.1.6-.32.81-.21.21-.49.32-.83.32h-1.33zM139.62 38.19h-.45v-1.64h-1.96v1.64h-.45v-3.6h.45v1.56h1.96V34.6h.45v3.59M145.2 38.19h.45v-3.6h-.45v3.6zm-2.5-.4h.76c.25 0 .45-.07.6-.2.13-.12.2-.3.2-.53a.69.69 0 0 0-.2-.54.86.86 0 0 0-.6-.19h-.77v1.45zm-.46.4v-3.6h.45v1.34h.88c.34 0 .61.1.83.32.21.2.32.48.32.81 0 .33-.1.6-.32.81-.21.21-.49.32-.83.32h-1.33zM148.04 38.19l1.22-1.8v-.02l-1.2-1.77h.53l.96 1.44h.01l.97-1.44h.51l-1.23 1.8 1.2 1.79h-.53l-.95-1.43h-.02l-.97 1.43h-.5M159.34 38.19h-.44V35h-1.92v3.18h-.45v-3.6h2.8v3.6M164.35 35.34c-.22-.26-.5-.39-.87-.39s-.66.13-.88.4a1.6 1.6 0 0 0-.32 1.04c0 .44.11.8.32 1.05.22.26.51.4.88.4.36 0 .65-.14.87-.4.21-.26.32-.6.32-1.05 0-.44-.1-.79-.32-1.05zm-2.08-.3c.3-.33.7-.5 1.2-.5.51 0 .92.17 1.21.5.3.33.45.78.45 1.35 0 .57-.15 1.02-.45 1.36-.3.33-.7.5-1.2.5-.51 0-.92-.17-1.21-.5-.3-.34-.45-.79-.45-1.36 0-.57.15-1.02.45-1.35zM168.55 36.31l1.8 1.88h-.61l-1.66-1.75h-.02v1.75h-.45v-3.6h.45v1.66h.02l1.54-1.65h.56l-1.63 1.71M173.12 35v1.5h.79c.25 0 .45-.06.59-.2a.73.73 0 0 0 .21-.55.73.73 0 0 0-.21-.56.84.84 0 0 0-.6-.2h-.78zm-.45-.4h1.35c.34 0 .61.1.83.32.21.22.32.5.32.83 0 .34-.1.62-.32.83-.22.22-.5.33-.83.33h-.9v1.28h-.45v-3.6zM180.57 38.19h.44v-3.6h-.44v3.6zm-2.52-.4h.77c.26 0 .46-.07.6-.2.14-.12.2-.3.2-.53a.69.69 0 0 0-.2-.54.86.86 0 0 0-.6-.19h-.77v1.45zm-.44.4v-3.6h.44v1.34h.88c.34 0 .62.1.83.32.22.2.33.48.33.81a1.09 1.09 0 0 1-1.15 1.13h-1.33zM185.02 38.19h-.45V35h-1.16v-.4h2.76v.4h-1.15v3.19M191 38.19v-2.86h-.05l-1.94 2.86h-.44v-3.6h.44v2.87h.04L191 34.6h.44v3.59H191M194.72 33.59h.3c0 .14.05.26.13.35.1.1.2.14.34.14.13 0 .24-.04.33-.14a.5.5 0 0 0 .13-.35h.3c0 .22-.06.4-.2.53a.77.77 0 0 1-.56.21.77.77 0 0 1-.56-.2.71.71 0 0 1-.21-.54zm1.76 4.6v-2.86h-.04l-1.94 2.86h-.44v-3.6h.44v2.87h.04l1.94-2.86h.44v3.59h-.44z"/>
  </g>
</svg>
